<?xml version="1.0" standalone="no"?>
<!DOCTYPE svg PUBLIC "-//W3C//DTD SVG 20010904//EN"
 "http://www.w3.org/TR/2001/REC-SVG-20010904/DTD/svg10.dtd">
<svg version="1.0" xmlns="http://www.w3.org/2000/svg"
 width="512.000000pt" height="512.000000pt" viewBox="0 0 512.000000 512.000000"
 preserveAspectRatio="xMidYMid meet">
<metadata>
Created by potrace 1.14, written by Peter Selinger 2001-2017
</metadata>
<g transform="translate(0.000000,512.000000) scale(0.100000,-0.100000)"
fill="#000000" stroke="none">
<path d="M715 4526 c-40 -17 -65 -56 -66 -103 0 -39 2 -53 21 -113 6 -19 13
-55 17 -78 5 -41 2 -47 -34 -85 -118 -125 -208 -270 -253 -407 -72 -220 -61
-449 30 -662 115 -268 288 -427 538 -497 78 -21 76 -21 100 -21 38 0 52 -26
91 -170 83 -306 180 -529 322 -738 135 -198 126 -176 93 -220 -15 -20 -39 -48
-52 -62 -71 -72 -69 -180 5 -215 53 -25 80 -13 164 77 l77 81 158 -77 c88 -42
179 -87 204 -100 48 -24 46 -20 40 -111 -6 -83 -1 -106 29 -136 40 -40 91 -40
131 -1 22 23 31 44 41 105 17 102 17 102 75 89 27 -6 71 -14 98 -17 27 -3 52
-8 55 -9 7 -4 123 -15 230 -21 41 -3 76 -6 77 -8 2 -2 4 -40 6 -85 1 -60 7
-90 21 -112 35 -56 126 -58 162 -4 10 15 18 57 22 107 3 45 8 84 10 87 3 3
355 8 374 5 0 0 2 -36 5 -80 8 -136 31 -175 105 -175 26 0 44 8 62 26 27 27
36 62 41 169 2 33 4 62 5 65 1 5 285 5 314 1 4 0 7 -25 7 -55 0 -64 11 -96 41
-125 47 -43 136 -17 156 46 4 16 8 61 8 100 l0 73 51 10 c185 39 335 192 380
391 3 13 7 65 9 116 7 164 -40 289 -150 398 -113 113 -216 147 -420 140 -66
-3 -187 -7 -270 -10 -316 -12 -1067 -18 -1150 -10 -134 14 -315 62 -375 100
-94 60 -195 249 -261 493 -33 123 -39 145 -44 182 -3 19 -8 41 -10 48 -6 18
-33 205 -40 272 -2 30 -7 73 -10 95 -2 22 -7 64 -10 93 -23 226 -31 277 -60
367 -29 87 -85 206 -106 225 -3 3 -13 16 -22 30 -9 14 -60 68 -112 121 l-96
96 41 81 c41 83 49 126 29 165 -29 57 -103 75 -151 37 -14 -10 -42 -53 -63
-95 -42 -86 -40 -85 -170 -83 -49 1 -147 -2 -217 -6 l-128 -7 -11 27 c-5 16
-15 50 -21 77 -18 85 -80 130 -143 103z"/>
</g>
</svg>
